<?xml version="1.0" encoding="UTF-8" standalone="no"?>
<!DOCTYPE svg PUBLIC "-//W3C//DTD SVG 1.1//EN"
 "http://www.w3.org/Graphics/SVG/1.1/DTD/svg11.dtd">
<!-- Generated by graphviz version 15.0.0 (20260523.1842)
 -->
<!-- Title: ocpn Pages: 1 -->
<svg width="1586pt" height="207pt"
 viewBox="0.00 0.00 1586.00 207.00" xmlns="http://www.w3.org/2000/svg" xmlns:xlink="http://www.w3.org/1999/xlink">
<g id="graph0" class="graph" transform="scale(1 1) rotate(0) translate(4 203.23)">
<title>ocpn</title>
<polygon fill="white" stroke="none" points="-4,4 -4,-203.23 1581.71,-203.23 1581.71,4 -4,4"/>
<!-- e19a1316&#45;0424&#45;4b1c&#45;a37e&#45;dcd17f844a72 -->
<g id="node1" class="node">
<title>e19a1316&#45;0424&#45;4b1c&#45;a37e&#45;dcd17f844a72</title>
<polygon fill="none" stroke="black" points="284.39,-57 152.14,-57 152.14,-21 284.39,-21 284.39,-57"/>
<text xml:space="preserve" text-anchor="middle" x="218.26" y="-33.95" font-family="Times New Roman,serif" font-size="14.00">CreateGroupBooking</text>
</g>
<!-- f1064eed&#45;a1da&#45;4f1d&#45;a920&#45;34256a2d45ad -->
<g id="node13" class="node">
<title>f1064eed&#45;a1da&#45;4f1d&#45;a920&#45;34256a2d45ad</title>
<ellipse fill="#4f83b2" stroke="black" cx="362.65" cy="-111" rx="18" ry="18"/>
<text xml:space="preserve" text-anchor="middle" x="362.65" y="-105.95" font-family="Times New Roman,serif" font-size="14.00"> </text>
</g>
<!-- e19a1316&#45;0424&#45;4b1c&#45;a37e&#45;dcd17f844a72&#45;&gt;f1064eed&#45;a1da&#45;4f1d&#45;a920&#45;34256a2d45ad -->
<g id="edge8" class="edge">
<title>e19a1316&#45;0424&#45;4b1c&#45;a37e&#45;dcd17f844a72&#45;&gt;f1064eed&#45;a1da&#45;4f1d&#45;a920&#45;34256a2d45ad</title>
<path fill="none" stroke="#4f83b2" stroke-width="4" d="M247.68,-57.35C263.86,-67.39 284.72,-79.65 304.14,-89 312.46,-93.01 321.72,-96.82 330.33,-100.1"/>
<polygon fill="#4f83b2" stroke="#4f83b2" stroke-width="4" points="328.95,-103.33 339.55,-103.47 331.35,-96.75 328.95,-103.33"/>
<text xml:space="preserve" text-anchor="middle" x="294.26" y="-87.43" font-family="Times New Roman,serif" font-size="14.00"> </text>
</g>
<!-- 811fbdc8&#45;199d&#45;4b60&#45;a472&#45;c219bab27480 -->
<g id="node22" class="node">
<title>811fbdc8&#45;199d&#45;4b60&#45;a472&#45;c219bab27480</title>
<polygon fill="none" stroke="none" points="411.15,-43 314.15,-43 314.15,-7 411.15,-7 411.15,-43"/>
<polyline fill="none" stroke="black" points="314.15,-7 411.15,-7"/>
<text xml:space="preserve" text-anchor="middle" x="362.65" y="-19.95" font-family="Times New Roman,serif" font-size="14.00" fill="#53ddef">GroupBooking</text>
</g>
<!-- e19a1316&#45;0424&#45;4b1c&#45;a37e&#45;dcd17f844a72&#45;&gt;811fbdc8&#45;199d&#45;4b60&#45;a472&#45;c219bab27480 -->
<g id="edge26" class="edge">
<title>e19a1316&#45;0424&#45;4b1c&#45;a37e&#45;dcd17f844a72&#45;&gt;811fbdc8&#45;199d&#45;4b60&#45;a472&#45;c219bab27480</title>
<path fill="none" stroke="#53ddef" d="M284.62,-32.57C290.59,-31.99 296.62,-31.39 302.53,-30.81"/>
<polygon fill="#53ddef" stroke="#53ddef" points="302.59,-34.32 312.2,-29.86 301.91,-27.36 302.59,-34.32"/>
<text xml:space="preserve" text-anchor="middle" x="294.26" y="-34.78" font-family="Times New Roman,serif" font-size="14.00"> </text>
</g>
<!-- 611a28c2&#45;e237&#45;4396&#45;b207&#45;eaaf375cce6e -->
<g id="node2" class="node">
<title>611a28c2&#45;e237&#45;4396&#45;b207&#45;eaaf375cce6e</title>
<polygon fill="none" stroke="black" points="554.42,-100 440.92,-100 440.92,-64 554.42,-64 554.42,-100"/>
<text xml:space="preserve" text-anchor="middle" x="497.67" y="-76.95" font-family="Times New Roman,serif" font-size="14.00">IssueTravelTicket</text>
</g>
<!-- 6f6d5e8a&#45;c0ce&#45;4555&#45;b5b0&#45;1dd408a8bf24 -->
<g id="node9" class="node">
<title>6f6d5e8a&#45;c0ce&#45;4555&#45;b5b0&#45;1dd408a8bf24</title>
<ellipse fill="#4f83b2" stroke="black" cx="621.94" cy="-103" rx="18" ry="18"/>
<text xml:space="preserve" text-anchor="middle" x="621.94" y="-97.95" font-family="Times New Roman,serif" font-size="14.00"> </text>
</g>
<!-- 611a28c2&#45;e237&#45;4396&#45;b207&#45;eaaf375cce6e&#45;&gt;6f6d5e8a&#45;c0ce&#45;4555&#45;b5b0&#45;1dd408a8bf24 -->
<g id="edge3" class="edge">
<title>611a28c2&#45;e237&#45;4396&#45;b207&#45;eaaf375cce6e&#45;&gt;6f6d5e8a&#45;c0ce&#45;4555&#45;b5b0&#45;1dd408a8bf24</title>
<path fill="none" stroke="#4f83b2" d="M554.8,-91.64C567.89,-93.89 581.29,-96.19 592.58,-98.13"/>
<polygon fill="#4f83b2" stroke="#4f83b2" points="591.94,-101.57 602.39,-99.81 593.12,-94.67 591.94,-101.57"/>
<text xml:space="preserve" text-anchor="middle" x="564.3" y="-96.33" font-family="Times New Roman,serif" font-size="14.00"> </text>
</g>
<!-- f0a422af&#45;ebdf&#45;40b0&#45;bfe0&#45;6a96290edcfe -->
<g id="node17" class="node">
<title>f0a422af&#45;ebdf&#45;40b0&#45;bfe0&#45;6a96290edcfe</title>
<ellipse fill="#cf220b" stroke="black" cx="848.96" cy="-74" rx="18" ry="18"/>
<text xml:space="preserve" text-anchor="middle" x="848.96" y="-68.95" font-family="Times New Roman,serif" font-size="14.00"> </text>
</g>
<!-- 611a28c2&#45;e237&#45;4396&#45;b207&#45;eaaf375cce6e&#45;&gt;f0a422af&#45;ebdf&#45;40b0&#45;bfe0&#45;6a96290edcfe -->
<g id="edge20" class="edge">
<title>611a28c2&#45;e237&#45;4396&#45;b207&#45;eaaf375cce6e&#45;&gt;f0a422af&#45;ebdf&#45;40b0&#45;bfe0&#45;6a96290edcfe</title>
<path fill="none" stroke="#cf220b" d="M554.79,-80.71C630.25,-78.99 761.6,-75.98 819.34,-74.66"/>
<polygon fill="#cf220b" stroke="#cf220b" points="819.38,-78.16 829.3,-74.43 819.22,-71.16 819.38,-78.16"/>
<text xml:space="preserve" text-anchor="middle" x="679.58" y="-81.02" font-family="Times New Roman,serif" font-size="14.00"> </text>
</g>
<!-- 08daa6f3&#45;18a7&#45;4201&#45;8663&#45;c7b1226baca3 -->
<g id="node3" class="node">
<title>08daa6f3&#45;18a7&#45;4201&#45;8663&#45;c7b1226baca3</title>
<polygon fill="none" stroke="black" points="811.21,-161 689.46,-161 689.46,-125 811.21,-125 811.21,-161"/>
<text xml:space="preserve" text-anchor="middle" x="750.33" y="-137.95" font-family="Times New Roman,serif" font-size="14.00">AssignToDeparture</text>
</g>
<!-- 7e40f8b8&#45;1ae7&#45;4255&#45;b029&#45;8efc321d516f -->
<g id="node14" class="node">
<title>7e40f8b8&#45;1ae7&#45;4255&#45;b029&#45;8efc321d516f</title>
<ellipse fill="#4f83b2" stroke="black" cx="848.96" cy="-134" rx="18" ry="18"/>
<text xml:space="preserve" text-anchor="middle" x="848.96" y="-128.95" font-family="Times New Roman,serif" font-size="14.00"> </text>
</g>
<!-- 08daa6f3&#45;18a7&#45;4201&#45;8663&#45;c7b1226baca3&#45;&gt;7e40f8b8&#45;1ae7&#45;4255&#45;b029&#45;8efc321d516f -->
<g id="edge10" class="edge">
<title>08daa6f3&#45;18a7&#45;4201&#45;8663&#45;c7b1226baca3&#45;&gt;7e40f8b8&#45;1ae7&#45;4255&#45;b029&#45;8efc321d516f</title>
<path fill="none" stroke="#4f83b2" stroke-width="4" d="M811.7,-137.38C812.78,-137.28 813.84,-137.18 814.9,-137.08"/>
<polygon fill="#4f83b2" stroke="#4f83b2" stroke-width="4" points="815,-140.59 824.63,-136.17 814.35,-133.62 815,-140.59"/>
<text xml:space="preserve" text-anchor="middle" x="821.08" y="-139.86" font-family="Times New Roman,serif" font-size="14.00"> </text>
</g>
<!-- b5e35c8d&#45;360d&#45;449a&#45;961b&#45;9531b99407d2 -->
<g id="node19" class="node">
<title>b5e35c8d&#45;360d&#45;449a&#45;961b&#45;9531b99407d2</title>
<ellipse fill="#82d29c" stroke="black" cx="892.96" cy="-174" rx="18" ry="18"/>
<text xml:space="preserve" text-anchor="middle" x="892.96" y="-168.95" font-family="Times New Roman,serif" font-size="14.00"> </text>
</g>
<!-- 08daa6f3&#45;18a7&#45;4201&#45;8663&#45;c7b1226baca3&#45;&gt;b5e35c8d&#45;360d&#45;449a&#45;961b&#45;9531b99407d2 -->
<g id="edge23" class="edge">
<title>08daa6f3&#45;18a7&#45;4201&#45;8663&#45;c7b1226baca3&#45;&gt;b5e35c8d&#45;360d&#45;449a&#45;961b&#45;9531b99407d2</title>
<path fill="none" stroke="#82d29c" d="M811.38,-156.24C829.64,-160.26 848.84,-164.5 863.92,-167.82"/>
<polygon fill="#82d29c" stroke="#82d29c" points="863.04,-171.21 873.56,-169.94 864.54,-164.37 863.04,-171.21"/>
<text xml:space="preserve" text-anchor="middle" x="821.08" y="-161.7" font-family="Times New Roman,serif" font-size="14.00"> </text>
</g>
<!-- 6e15941c&#45;dff6&#45;488e&#45;bb2f&#45;1f4882a19e25 -->
<g id="node4" class="node">
<title>6e15941c&#45;dff6&#45;488e&#45;bb2f&#45;1f4882a19e25</title>
<polygon fill="none" stroke="black" points="1266.46,-156 1212.46,-156 1212.46,-120 1266.46,-120 1266.46,-156"/>
<text xml:space="preserve" text-anchor="middle" x="1239.46" y="-132.95" font-family="Times New Roman,serif" font-size="14.00">Depart</text>
</g>
<!-- 4925d778&#45;b355&#45;4da4&#45;b885&#45;ce138fa9b816 -->
<g id="node11" class="node">
<title>4925d778&#45;b355&#45;4da4&#45;b885&#45;ce138fa9b816</title>
<ellipse fill="#4f83b2" stroke="black" cx="1321.21" cy="-167" rx="18" ry="18"/>
<text xml:space="preserve" text-anchor="middle" x="1321.21" y="-161.95" font-family="Times New Roman,serif" font-size="14.00"> </text>
</g>
<!-- 6e15941c&#45;dff6&#45;488e&#45;bb2f&#45;1f4882a19e25&#45;&gt;4925d778&#45;b355&#45;4da4&#45;b885&#45;ce138fa9b816 -->
<g id="edge6" class="edge">
<title>6e15941c&#45;dff6&#45;488e&#45;bb2f&#45;1f4882a19e25&#45;&gt;4925d778&#45;b355&#45;4da4&#45;b885&#45;ce138fa9b816</title>
<path fill="none" stroke="#4f83b2" stroke-width="4" d="M1266.57,-147.5C1273.81,-150.13 1281.74,-153.01 1289.23,-155.74"/>
<polygon fill="#4f83b2" stroke="#4f83b2" stroke-width="4" points="1287.76,-158.93 1298.36,-159.05 1290.15,-152.35 1287.76,-158.93"/>
<text xml:space="preserve" text-anchor="middle" x="1276.33" y="-154.83" font-family="Times New Roman,serif" font-size="14.00"> </text>
</g>
<!-- 0b324a79&#45;2ced&#45;4c1c&#45;983a&#45;280e60acb548 -->
<g id="node20" class="node">
<title>0b324a79&#45;2ced&#45;4c1c&#45;983a&#45;280e60acb548</title>
<polygon fill="none" stroke="none" points="1356.21,-142 1286.21,-142 1286.21,-106 1356.21,-106 1356.21,-142"/>
<polyline fill="none" stroke="black" points="1286.21,-106 1356.21,-106"/>
<text xml:space="preserve" text-anchor="middle" x="1321.21" y="-118.95" font-family="Times New Roman,serif" font-size="14.00" fill="#82d29c">Departure</text>
</g>
<!-- 6e15941c&#45;dff6&#45;488e&#45;bb2f&#45;1f4882a19e25&#45;&gt;0b324a79&#45;2ced&#45;4c1c&#45;983a&#45;280e60acb548 -->
<g id="edge24" class="edge">
<title>6e15941c&#45;dff6&#45;488e&#45;bb2f&#45;1f4882a19e25&#45;&gt;0b324a79&#45;2ced&#45;4c1c&#45;983a&#45;280e60acb548</title>
<path fill="none" stroke="#82d29c" d="M1266.57,-133.42C1269.18,-132.96 1271.87,-132.49 1274.61,-132.01"/>
<polygon fill="#82d29c" stroke="#82d29c" points="1275.18,-135.46 1284.42,-130.28 1273.96,-128.56 1275.18,-135.46"/>
<text xml:space="preserve" text-anchor="middle" x="1276.33" y="-135.04" font-family="Times New Roman,serif" font-size="14.00"> </text>
</g>
<!-- ed74d818&#45;dada&#45;4602&#45;9990&#45;3a1544563cd2 -->
<g id="node5" class="node">
<title>ed74d818&#45;dada&#45;4602&#45;9990&#45;3a1544563cd2</title>
<polygon fill="none" stroke="black" points="1487.96,-185 1375.96,-185 1375.96,-149 1487.96,-149 1487.96,-185"/>
<text xml:space="preserve" text-anchor="middle" x="1431.96" y="-161.95" font-family="Times New Roman,serif" font-size="14.00">CompleteJourney</text>
</g>
<!-- 70407a32&#45;121d&#45;4ba3&#45;89ed&#45;5029f388772e -->
<g id="node8" class="node">
<title>70407a32&#45;121d&#45;4ba3&#45;89ed&#45;5029f388772e</title>
<polygon fill="none" stroke="none" points="1577.71,-185 1507.71,-185 1507.71,-149 1577.71,-149 1577.71,-185"/>
<polyline fill="none" stroke="black" points="1507.71,-149 1577.71,-149"/>
<text xml:space="preserve" text-anchor="middle" x="1542.71" y="-161.95" font-family="Times New Roman,serif" font-size="14.00" fill="#4f83b2">Passenger</text>
</g>
<!-- ed74d818&#45;dada&#45;4602&#45;9990&#45;3a1544563cd2&#45;&gt;70407a32&#45;121d&#45;4ba3&#45;89ed&#45;5029f388772e -->
<g id="edge14" class="edge">
<title>ed74d818&#45;dada&#45;4602&#45;9990&#45;3a1544563cd2&#45;&gt;70407a32&#45;121d&#45;4ba3&#45;89ed&#45;5029f388772e</title>
<path fill="none" stroke="#4f83b2" d="M1488.29,-167C1490.83,-167 1493.37,-167 1495.88,-167"/>
<polygon fill="#4f83b2" stroke="#4f83b2" points="1495.87,-170.5 1505.87,-167 1495.87,-163.5 1495.87,-170.5"/>
<text xml:space="preserve" text-anchor="middle" x="1497.83" y="-170.2" font-family="Times New Roman,serif" font-size="14.00"> </text>
</g>
<!-- b95b3263&#45;3e23&#45;41b4&#45;bfeb&#45;e29495f7297f -->
<g id="node6" class="node">
<title>b95b3263&#45;3e23&#45;41b4&#45;bfeb&#45;e29495f7297f</title>
<polygon fill="none" stroke="black" points="1069.96,-143 936.21,-143 936.21,-107 1069.96,-107 1069.96,-143"/>
<text xml:space="preserve" text-anchor="middle" x="1003.08" y="-119.95" font-family="Times New Roman,serif" font-size="14.00">ValidateAtPublicGate</text>
</g>
<!-- b087da29&#45;644a&#45;49e7&#45;889c&#45;e73998e319cf -->
<g id="node10" class="node">
<title>b087da29&#45;644a&#45;49e7&#45;889c&#45;e73998e319cf</title>
<ellipse fill="#4f83b2" stroke="black" cx="1149.83" cy="-102" rx="18" ry="18"/>
<text xml:space="preserve" text-anchor="middle" x="1149.83" y="-96.95" font-family="Times New Roman,serif" font-size="14.00"> </text>
</g>
<!-- b95b3263&#45;3e23&#45;41b4&#45;bfeb&#45;e29495f7297f&#45;&gt;b087da29&#45;644a&#45;49e7&#45;889c&#45;e73998e319cf -->
<g id="edge5" class="edge">
<title>b95b3263&#45;3e23&#45;41b4&#45;bfeb&#45;e29495f7297f&#45;&gt;b087da29&#45;644a&#45;49e7&#45;889c&#45;e73998e319cf</title>
<path fill="none" stroke="#4f83b2" d="M1070.1,-114.51C1087.81,-111.7 1106.03,-108.8 1120.48,-106.51"/>
<polygon fill="#4f83b2" stroke="#4f83b2" points="1120.81,-110 1130.14,-104.97 1119.71,-103.08 1120.81,-110"/>
<text xml:space="preserve" text-anchor="middle" x="1097.08" y="-113.3" font-family="Times New Roman,serif" font-size="14.00"> </text>
</g>
<!-- 032c42bb&#45;5332&#45;4fea&#45;9502&#45;8871da2de92c -->
<g id="node16" class="node">
<title>032c42bb&#45;5332&#45;4fea&#45;9502&#45;8871da2de92c</title>
<polygon fill="none" stroke="none" points="1192.71,-163 1106.96,-163 1106.96,-127 1192.71,-127 1192.71,-163"/>
<polyline fill="none" stroke="black" points="1106.96,-127 1192.71,-127"/>
<text xml:space="preserve" text-anchor="middle" x="1149.83" y="-139.95" font-family="Times New Roman,serif" font-size="14.00" fill="#cf220b">TravelTicket</text>
</g>
<!-- b95b3263&#45;3e23&#45;41b4&#45;bfeb&#45;e29495f7297f&#45;&gt;032c42bb&#45;5332&#45;4fea&#45;9502&#45;8871da2de92c -->
<g id="edge17" class="edge">
<title>b95b3263&#45;3e23&#45;41b4&#45;bfeb&#45;e29495f7297f&#45;&gt;032c42bb&#45;5332&#45;4fea&#45;9502&#45;8871da2de92c</title>
<path fill="none" stroke="#cf220b" d="M1070.1,-134.12C1078.52,-135.28 1087.05,-136.46 1095.23,-137.59"/>
<polygon fill="#cf220b" stroke="#cf220b" points="1094.64,-141.05 1105.02,-138.95 1095.6,-134.11 1094.64,-141.05"/>
<text xml:space="preserve" text-anchor="middle" x="1097.08" y="-141.16" font-family="Times New Roman,serif" font-size="14.00"> </text>
</g>
<!-- a1d63835&#45;c98e&#45;485e&#45;9090&#45;e944f11cb34a -->
<g id="node7" class="node">
<title>a1d63835&#45;c98e&#45;485e&#45;9090&#45;e944f11cb34a</title>
<polygon fill="none" stroke="black" points="1087.21,-83 918.96,-83 918.96,-47 1087.21,-47 1087.21,-83"/>
<text xml:space="preserve" text-anchor="middle" x="1003.08" y="-59.95" font-family="Times New Roman,serif" font-size="14.00">BoardViaAccreditationLane</text>
</g>
<!-- a1d63835&#45;c98e&#45;485e&#45;9090&#45;e944f11cb34a&#45;&gt;b087da29&#45;644a&#45;49e7&#45;889c&#45;e73998e319cf -->
<g id="edge11" class="edge">
<title>a1d63835&#45;c98e&#45;485e&#45;9090&#45;e944f11cb34a&#45;&gt;b087da29&#45;644a&#45;49e7&#45;889c&#45;e73998e319cf</title>
<path fill="none" stroke="#4f83b2" d="M1087.41,-59.36C1091.36,-60.17 1095.22,-61.2 1098.96,-62.5 1109.99,-66.34 1120.42,-73.75 1128.86,-81.12"/>
<polygon fill="#4f83b2" stroke="#4f83b2" points="1126.39,-83.6 1136.07,-87.9 1131.18,-78.5 1126.39,-83.6"/>
<text xml:space="preserve" text-anchor="middle" x="1097.08" y="-65.7" font-family="Times New Roman,serif" font-size="14.00"> </text>
</g>
<!-- a1d63835&#45;c98e&#45;485e&#45;9090&#45;e944f11cb34a&#45;&gt;032c42bb&#45;5332&#45;4fea&#45;9502&#45;8871da2de92c -->
<g id="edge19" class="edge">
<title>a1d63835&#45;c98e&#45;485e&#45;9090&#45;e944f11cb34a&#45;&gt;032c42bb&#45;5332&#45;4fea&#45;9502&#45;8871da2de92c</title>
<path fill="none" stroke="#cf220b" d="M1087.39,-83.12C1091.58,-85.83 1095.49,-88.94 1098.96,-92.5 1106.3,-100.03 1102.22,-107.25 1104.81,-116.56"/>
<polygon fill="#cf220b" stroke="#cf220b" points="1101.72,-118.21 1109.57,-125.33 1107.88,-114.87 1101.72,-118.21"/>
<text xml:space="preserve" text-anchor="middle" x="1097.08" y="-95.7" font-family="Times New Roman,serif" font-size="14.00"> </text>
</g>
<!-- 6f6d5e8a&#45;c0ce&#45;4555&#45;b5b0&#45;1dd408a8bf24&#45;&gt;08daa6f3&#45;18a7&#45;4201&#45;8663&#45;c7b1226baca3 -->
<g id="edge2" class="edge">
<title>6f6d5e8a&#45;c0ce&#45;4555&#45;b5b0&#45;1dd408a8bf24&#45;&gt;08daa6f3&#45;18a7&#45;4201&#45;8663&#45;c7b1226baca3</title>
<path fill="none" stroke="#4f83b2" stroke-width="4" d="M639.46,-108.23C649.19,-111.31 662.26,-115.44 675.98,-119.79"/>
<polygon fill="#4f83b2" stroke="#4f83b2" stroke-width="4" points="674.64,-123.03 685.23,-122.71 676.75,-116.36 674.64,-123.03"/>
<text xml:space="preserve" text-anchor="middle" x="679.58" y="-123.81" font-family="Times New Roman,serif" font-size="14.00"> </text>
</g>
<!-- b087da29&#45;644a&#45;49e7&#45;889c&#45;e73998e319cf&#45;&gt;6e15941c&#45;dff6&#45;488e&#45;bb2f&#45;1f4882a19e25 -->
<g id="edge13" class="edge">
<title>b087da29&#45;644a&#45;49e7&#45;889c&#45;e73998e319cf&#45;&gt;6e15941c&#45;dff6&#45;488e&#45;bb2f&#45;1f4882a19e25</title>
<path fill="none" stroke="#4f83b2" stroke-width="4" d="M1166.91,-108.6C1175.5,-112.13 1186.52,-116.66 1197.32,-121.1"/>
<polygon fill="#4f83b2" stroke="#4f83b2" stroke-width="4" points="1195.99,-124.34 1206.57,-124.9 1198.65,-117.86 1195.99,-124.34"/>
<text xml:space="preserve" text-anchor="middle" x="1202.58" y="-126.42" font-family="Times New Roman,serif" font-size="14.00"> </text>
</g>
<!-- 4925d778&#45;b355&#45;4da4&#45;b885&#45;ce138fa9b816&#45;&gt;ed74d818&#45;dada&#45;4602&#45;9990&#45;3a1544563cd2 -->
<g id="edge7" class="edge">
<title>4925d778&#45;b355&#45;4da4&#45;b885&#45;ce138fa9b816&#45;&gt;ed74d818&#45;dada&#45;4602&#45;9990&#45;3a1544563cd2</title>
<path fill="none" stroke="#4f83b2" d="M1339.68,-167C1346.77,-167 1355.44,-167 1364.58,-167"/>
<polygon fill="#4f83b2" stroke="#4f83b2" points="1364.39,-170.5 1374.39,-167 1364.39,-163.5 1364.39,-170.5"/>
<text xml:space="preserve" text-anchor="middle" x="1366.08" y="-170.2" font-family="Times New Roman,serif" font-size="14.00"> </text>
</g>
<!-- e1a10419&#45;6967&#45;4567&#45;98be&#45;766f9d4a27d6 -->
<g id="node12" class="node">
<title>e1a10419&#45;6967&#45;4567&#45;98be&#45;766f9d4a27d6</title>
<ellipse fill="#4f83b2" stroke="black" cx="66.19" cy="-61" rx="47.77" ry="18"/>
<text xml:space="preserve" text-anchor="middle" x="66.19" y="-55.95" font-family="Times New Roman,serif" font-size="14.00">Passenger</text>
</g>
<!-- e1a10419&#45;6967&#45;4567&#45;98be&#45;766f9d4a27d6&#45;&gt;e19a1316&#45;0424&#45;4b1c&#45;a37e&#45;dcd17f844a72 -->
<g id="edge1" class="edge">
<title>e1a10419&#45;6967&#45;4567&#45;98be&#45;766f9d4a27d6&#45;&gt;e19a1316&#45;0424&#45;4b1c&#45;a37e&#45;dcd17f844a72</title>
<path fill="none" stroke="#4f83b2" stroke-width="4" d="M111,-54.58C118.85,-53.43 127.26,-52.19 135.77,-50.95"/>
<polygon fill="#4f83b2" stroke="#4f83b2" stroke-width="4" points="136.26,-54.41 145.65,-49.5 135.25,-47.49 136.26,-54.41"/>
<text xml:space="preserve" text-anchor="middle" x="142.26" y="-53.2" font-family="Times New Roman,serif" font-size="14.00"> </text>
</g>
<!-- f1064eed&#45;a1da&#45;4f1d&#45;a920&#45;34256a2d45ad&#45;&gt;611a28c2&#45;e237&#45;4396&#45;b207&#45;eaaf375cce6e -->
<g id="edge9" class="edge">
<title>f1064eed&#45;a1da&#45;4f1d&#45;a920&#45;34256a2d45ad&#45;&gt;611a28c2&#45;e237&#45;4396&#45;b207&#45;eaaf375cce6e</title>
<path fill="none" stroke="#4f83b2" d="M380.77,-107.27C393.32,-104.53 411.25,-100.62 429.27,-96.7"/>
<polygon fill="#4f83b2" stroke="#4f83b2" points="429.94,-100.13 438.97,-94.58 428.45,-93.29 429.94,-100.13"/>
<text xml:space="preserve" text-anchor="middle" x="431.05" y="-99.7" font-family="Times New Roman,serif" font-size="14.00"> </text>
</g>
<!-- 7e40f8b8&#45;1ae7&#45;4255&#45;b029&#45;8efc321d516f&#45;&gt;b95b3263&#45;3e23&#45;41b4&#45;bfeb&#45;e29495f7297f -->
<g id="edge12" class="edge">
<title>7e40f8b8&#45;1ae7&#45;4255&#45;b029&#45;8efc321d516f&#45;&gt;b95b3263&#45;3e23&#45;41b4&#45;bfeb&#45;e29495f7297f</title>
<path fill="none" stroke="#4f83b2" d="M867.41,-132.97C881.76,-132.12 903.19,-130.85 924.75,-129.58"/>
<polygon fill="#4f83b2" stroke="#4f83b2" points="924.71,-133.08 934.48,-129 924.3,-126.1 924.71,-133.08"/>
<text xml:space="preserve" text-anchor="middle" x="892.96" y="-135.69" font-family="Times New Roman,serif" font-size="14.00"> </text>
</g>
<!-- 7e40f8b8&#45;1ae7&#45;4255&#45;b029&#45;8efc321d516f&#45;&gt;a1d63835&#45;c98e&#45;485e&#45;9090&#45;e944f11cb34a -->
<g id="edge4" class="edge">
<title>7e40f8b8&#45;1ae7&#45;4255&#45;b029&#45;8efc321d516f&#45;&gt;a1d63835&#45;c98e&#45;485e&#45;9090&#45;e944f11cb34a</title>
<path fill="none" stroke="#4f83b2" d="M862.87,-122.09C866.59,-119.03 870.78,-115.92 874.96,-113.5 892.46,-103.35 912.49,-94.56 931.38,-87.36"/>
<polygon fill="#4f83b2" stroke="#4f83b2" points="932.46,-90.69 940.63,-83.94 930.03,-84.12 932.46,-90.69"/>
<text xml:space="preserve" text-anchor="middle" x="892.96" y="-116.7" font-family="Times New Roman,serif" font-size="14.00"> </text>
</g>
<!-- 55249df5&#45;4ef0&#45;4758&#45;a72e&#45;f5eea59c3d79 -->
<g id="node15" class="node">
<title>55249df5&#45;4ef0&#45;4758&#45;a72e&#45;f5eea59c3d79</title>
<ellipse fill="#cf220b" stroke="black" cx="362.65" cy="-68" rx="58.52" ry="18"/>
<text xml:space="preserve" text-anchor="middle" x="362.65" y="-62.95" font-family="Times New Roman,serif" font-size="14.00">TravelTicket</text>
</g>
<!-- 55249df5&#45;4ef0&#45;4758&#45;a72e&#45;f5eea59c3d79&#45;&gt;611a28c2&#45;e237&#45;4396&#45;b207&#45;eaaf375cce6e -->
<g id="edge15" class="edge">
<title>55249df5&#45;4ef0&#45;4758&#45;a72e&#45;f5eea59c3d79&#45;&gt;611a28c2&#45;e237&#45;4396&#45;b207&#45;eaaf375cce6e</title>
<path fill="none" stroke="#cf220b" d="M418.53,-73.78C422.06,-74.15 425.64,-74.52 429.23,-74.9"/>
<polygon fill="#cf220b" stroke="#cf220b" points="428.82,-78.38 439.13,-75.94 429.55,-71.42 428.82,-78.38"/>
<text xml:space="preserve" text-anchor="middle" x="431.05" y="-78.2" font-family="Times New Roman,serif" font-size="14.00"> </text>
</g>
<!-- f0a422af&#45;ebdf&#45;40b0&#45;bfe0&#45;6a96290edcfe&#45;&gt;b95b3263&#45;3e23&#45;41b4&#45;bfeb&#45;e29495f7297f -->
<g id="edge18" class="edge">
<title>f0a422af&#45;ebdf&#45;40b0&#45;bfe0&#45;6a96290edcfe&#45;&gt;b95b3263&#45;3e23&#45;41b4&#45;bfeb&#45;e29495f7297f</title>
<path fill="none" stroke="#cf220b" d="M867.43,-73.26C880,-73.35 897.09,-74.73 910.96,-80.5 915.19,-82.26 915.07,-84.58 918.96,-87 927.38,-92.23 936.65,-97.17 945.84,-101.65"/>
<polygon fill="#cf220b" stroke="#cf220b" points="944.23,-104.76 954.77,-105.86 947.22,-98.43 944.23,-104.76"/>
<text xml:space="preserve" text-anchor="middle" x="892.96" y="-83.7" font-family="Times New Roman,serif" font-size="14.00"> </text>
</g>
<!-- f0a422af&#45;ebdf&#45;40b0&#45;bfe0&#45;6a96290edcfe&#45;&gt;a1d63835&#45;c98e&#45;485e&#45;9090&#45;e944f11cb34a -->
<g id="edge16" class="edge">
<title>f0a422af&#45;ebdf&#45;40b0&#45;bfe0&#45;6a96290edcfe&#45;&gt;a1d63835&#45;c98e&#45;485e&#45;9090&#45;e944f11cb34a</title>
<path fill="none" stroke="#cf220b" d="M861.42,-60.5C865.3,-56.87 869.94,-53.42 874.96,-51.5 890.68,-45.47 908.25,-44.2 925.19,-45.39"/>
<polygon fill="#cf220b" stroke="#cf220b" points="924.4,-48.83 934.71,-46.36 925.11,-41.87 924.4,-48.83"/>
<text xml:space="preserve" text-anchor="middle" x="892.96" y="-54.7" font-family="Times New Roman,serif" font-size="14.00"> </text>
</g>
<!-- 4c5acbca&#45;639b&#45;4615&#45;bf38&#45;397ab4622ea6 -->
<g id="node18" class="node">
<title>4c5acbca&#45;639b&#45;4615&#45;bf38&#45;397ab4622ea6</title>
<ellipse fill="#82d29c" stroke="black" cx="621.94" cy="-146" rx="47.77" ry="18"/>
<text xml:space="preserve" text-anchor="middle" x="621.94" y="-140.95" font-family="Times New Roman,serif" font-size="14.00">Departure</text>
</g>
<!-- 4c5acbca&#45;639b&#45;4615&#45;bf38&#45;397ab4622ea6&#45;&gt;08daa6f3&#45;18a7&#45;4201&#45;8663&#45;c7b1226baca3 -->
<g id="edge21" class="edge">
<title>4c5acbca&#45;639b&#45;4615&#45;bf38&#45;397ab4622ea6&#45;&gt;08daa6f3&#45;18a7&#45;4201&#45;8663&#45;c7b1226baca3</title>
<path fill="none" stroke="#82d29c" d="M670,-144.88C672.67,-144.82 675.38,-144.76 678.1,-144.69"/>
<polygon fill="#82d29c" stroke="#82d29c" points="677.94,-148.2 687.86,-144.46 677.78,-141.2 677.94,-148.2"/>
<text xml:space="preserve" text-anchor="middle" x="679.58" y="-147.88" font-family="Times New Roman,serif" font-size="14.00"> </text>
</g>
<!-- b5e35c8d&#45;360d&#45;449a&#45;961b&#45;9531b99407d2&#45;&gt;6e15941c&#45;dff6&#45;488e&#45;bb2f&#45;1f4882a19e25 -->
<g id="edge22" class="edge">
<title>b5e35c8d&#45;360d&#45;449a&#45;961b&#45;9531b99407d2&#45;&gt;6e15941c&#45;dff6&#45;488e&#45;bb2f&#45;1f4882a19e25</title>
<path fill="none" stroke="#82d29c" d="M910.95,-176.54C957.32,-182.84 1089.48,-196.58 1192.71,-166 1196.48,-164.88 1200.26,-163.37 1203.93,-161.62"/>
<polygon fill="#82d29c" stroke="#82d29c" points="1205.47,-164.77 1212.6,-156.94 1202.14,-158.61 1205.47,-164.77"/>
<text xml:space="preserve" text-anchor="middle" x="1097.08" y="-185.93" font-family="Times New Roman,serif" font-size="14.00"> </text>
</g>
<!-- 1a94fde2&#45;f85a&#45;4c64&#45;9857&#45;484e44294ef6 -->
<g id="node21" class="node">
<title>1a94fde2&#45;f85a&#45;4c64&#45;9857&#45;484e44294ef6</title>
<ellipse fill="#53ddef" stroke="black" cx="66.19" cy="-18" rx="66.19" ry="18"/>
<text xml:space="preserve" text-anchor="middle" x="66.19" y="-12.95" font-family="Times New Roman,serif" font-size="14.00">GroupBooking</text>
</g>
<!-- 1a94fde2&#45;f85a&#45;4c64&#45;9857&#45;484e44294ef6&#45;&gt;e19a1316&#45;0424&#45;4b1c&#45;a37e&#45;dcd17f844a72 -->
<g id="edge25" class="edge">
<title>1a94fde2&#45;f85a&#45;4c64&#45;9857&#45;484e44294ef6&#45;&gt;e19a1316&#45;0424&#45;4b1c&#45;a37e&#45;dcd17f844a72</title>
<path fill="none" stroke="#53ddef" d="M125.64,-26.18C130.59,-26.87 135.64,-27.58 140.7,-28.29"/>
<polygon fill="#53ddef" stroke="#53ddef" points="139.87,-31.7 150.26,-29.62 140.84,-24.77 139.87,-31.7"/>
<text xml:space="preserve" text-anchor="middle" x="142.26" y="-31.7" font-family="Times New Roman,serif" font-size="14.00"> </text>
</g>
</g>
</svg>
