<?xml version="1.0" encoding="UTF-8" standalone="no"?>
<!DOCTYPE svg PUBLIC "-//W3C//DTD SVG 1.1//EN"
 "http://www.w3.org/Graphics/SVG/1.1/DTD/svg11.dtd">
<!-- Generated by graphviz version 15.0.0 (20260523.1842)
 -->
<!-- Title: ocpn Pages: 1 -->
<svg width="1586pt" height="185pt"
 viewBox="0.00 0.00 1586.00 185.00" xmlns="http://www.w3.org/2000/svg" xmlns:xlink="http://www.w3.org/1999/xlink">
<g id="graph0" class="graph" transform="scale(1 1) rotate(0) translate(4 181.23)">
<title>ocpn</title>
<polygon fill="white" stroke="none" points="-4,4 -4,-181.23 1581.71,-181.23 1581.71,4 -4,4"/>
<!-- 60866b13&#45;e5a1&#45;4d97&#45;a933&#45;c5cc71ab4bea -->
<g id="node1" class="node">
<title>60866b13&#45;e5a1&#45;4d97&#45;a933&#45;c5cc71ab4bea</title>
<polygon fill="none" stroke="black" points="1069.96,-61 936.21,-61 936.21,-25 1069.96,-25 1069.96,-61"/>
<text xml:space="preserve" text-anchor="middle" x="1003.08" y="-37.95" font-family="Times New Roman,serif" font-size="14.00">ValidateAtPublicGate</text>
</g>
<!-- 140774f0&#45;2ed7&#45;49db&#45;be72&#45;da7c5654899a -->
<g id="node12" class="node">
<title>140774f0&#45;2ed7&#45;49db&#45;be72&#45;da7c5654899a</title>
<polygon fill="none" stroke="none" points="1192.71,-141 1106.96,-141 1106.96,-105 1192.71,-105 1192.71,-141"/>
<polyline fill="none" stroke="black" points="1106.96,-105 1192.71,-105"/>
<text xml:space="preserve" text-anchor="middle" x="1149.83" y="-117.95" font-family="Times New Roman,serif" font-size="14.00" fill="#c32873">TravelTicket</text>
</g>
<!-- 60866b13&#45;e5a1&#45;4d97&#45;a933&#45;c5cc71ab4bea&#45;&gt;140774f0&#45;2ed7&#45;49db&#45;be72&#45;da7c5654899a -->
<g id="edge10" class="edge">
<title>60866b13&#45;e5a1&#45;4d97&#45;a933&#45;c5cc71ab4bea&#45;&gt;140774f0&#45;2ed7&#45;49db&#45;be72&#45;da7c5654899a</title>
<path fill="none" stroke="#c32873" d="M1070.24,-52.56C1080.93,-56.64 1091.06,-62.39 1098.96,-70.5 1106.3,-78.03 1102.22,-85.25 1104.81,-94.56"/>
<polygon fill="#c32873" stroke="#c32873" points="1101.72,-96.21 1109.57,-103.33 1107.88,-92.87 1101.72,-96.21"/>
<text xml:space="preserve" text-anchor="middle" x="1097.08" y="-73.7" font-family="Times New Roman,serif" font-size="14.00"> </text>
</g>
<!-- c0c71aba&#45;6012&#45;4ff7&#45;aae9&#45;43a3ccfdc394 -->
<g id="node21" class="node">
<title>c0c71aba&#45;6012&#45;4ff7&#45;aae9&#45;43a3ccfdc394</title>
<ellipse fill="#5c097d" stroke="black" cx="1149.83" cy="-80" rx="18" ry="18"/>
<text xml:space="preserve" text-anchor="middle" x="1149.83" y="-74.95" font-family="Times New Roman,serif" font-size="14.00"> </text>
</g>
<!-- 60866b13&#45;e5a1&#45;4d97&#45;a933&#45;c5cc71ab4bea&#45;&gt;c0c71aba&#45;6012&#45;4ff7&#45;aae9&#45;43a3ccfdc394 -->
<g id="edge17" class="edge">
<title>60866b13&#45;e5a1&#45;4d97&#45;a933&#45;c5cc71ab4bea&#45;&gt;c0c71aba&#45;6012&#45;4ff7&#45;aae9&#45;43a3ccfdc394</title>
<path fill="none" stroke="#5c097d" d="M1070.36,-35.19C1080.13,-35.77 1089.93,-37.36 1098.96,-40.5 1109.99,-44.34 1120.42,-51.75 1128.86,-59.12"/>
<polygon fill="#5c097d" stroke="#5c097d" points="1126.39,-61.6 1136.07,-65.9 1131.18,-56.5 1126.39,-61.6"/>
<text xml:space="preserve" text-anchor="middle" x="1097.08" y="-43.7" font-family="Times New Roman,serif" font-size="14.00"> </text>
</g>
<!-- 09ff1fc1&#45;d92b&#45;40f5&#45;9022&#45;a2736c771ae4 -->
<g id="node2" class="node">
<title>09ff1fc1&#45;d92b&#45;40f5&#45;9022&#45;a2736c771ae4</title>
<polygon fill="none" stroke="black" points="554.42,-79 440.92,-79 440.92,-43 554.42,-43 554.42,-79"/>
<text xml:space="preserve" text-anchor="middle" x="497.67" y="-55.95" font-family="Times New Roman,serif" font-size="14.00">IssueTravelTicket</text>
</g>
<!-- 61d9a8fc&#45;22a0&#45;46da&#45;bc86&#45;d311aafea46b -->
<g id="node13" class="node">
<title>61d9a8fc&#45;22a0&#45;46da&#45;bc86&#45;d311aafea46b</title>
<ellipse fill="#c32873" stroke="black" cx="848.96" cy="-53" rx="18" ry="18"/>
<text xml:space="preserve" text-anchor="middle" x="848.96" y="-47.95" font-family="Times New Roman,serif" font-size="14.00"> </text>
</g>
<!-- 09ff1fc1&#45;d92b&#45;40f5&#45;9022&#45;a2736c771ae4&#45;&gt;61d9a8fc&#45;22a0&#45;46da&#45;bc86&#45;d311aafea46b -->
<g id="edge5" class="edge">
<title>09ff1fc1&#45;d92b&#45;40f5&#45;9022&#45;a2736c771ae4&#45;&gt;61d9a8fc&#45;22a0&#45;46da&#45;bc86&#45;d311aafea46b</title>
<path fill="none" stroke="#c32873" d="M554.79,-59.71C630.25,-57.99 761.6,-54.98 819.34,-53.66"/>
<polygon fill="#c32873" stroke="#c32873" points="819.38,-57.16 829.3,-53.43 819.22,-50.16 819.38,-57.16"/>
<text xml:space="preserve" text-anchor="middle" x="679.58" y="-60.02" font-family="Times New Roman,serif" font-size="14.00"> </text>
</g>
<!-- a7ee77a9&#45;3bb7&#45;4c36&#45;87e2&#45;ea8380cd852a -->
<g id="node18" class="node">
<title>a7ee77a9&#45;3bb7&#45;4c36&#45;87e2&#45;ea8380cd852a</title>
<ellipse fill="#5c097d" stroke="black" cx="621.94" cy="-125" rx="18" ry="18"/>
<text xml:space="preserve" text-anchor="middle" x="621.94" y="-119.95" font-family="Times New Roman,serif" font-size="14.00"> </text>
</g>
<!-- 09ff1fc1&#45;d92b&#45;40f5&#45;9022&#45;a2736c771ae4&#45;&gt;a7ee77a9&#45;3bb7&#45;4c36&#45;87e2&#45;ea8380cd852a -->
<g id="edge21" class="edge">
<title>09ff1fc1&#45;d92b&#45;40f5&#45;9022&#45;a2736c771ae4&#45;&gt;a7ee77a9&#45;3bb7&#45;4c36&#45;87e2&#45;ea8380cd852a</title>
<path fill="none" stroke="#5c097d" d="M530.74,-79.47C544.07,-86.98 559.76,-95.61 574.17,-103 580.88,-106.44 588.22,-109.99 595.06,-113.21"/>
<polygon fill="#5c097d" stroke="#5c097d" points="593.3,-116.25 603.85,-117.29 596.25,-109.9 593.3,-116.25"/>
<text xml:space="preserve" text-anchor="middle" x="564.3" y="-101.88" font-family="Times New Roman,serif" font-size="14.00"> </text>
</g>
<!-- 3bdb803e&#45;fb4f&#45;4980&#45;96ae&#45;82a81106b8ee -->
<g id="node3" class="node">
<title>3bdb803e&#45;fb4f&#45;4980&#45;96ae&#45;82a81106b8ee</title>
<polygon fill="none" stroke="black" points="811.21,-135 689.46,-135 689.46,-99 811.21,-99 811.21,-135"/>
<text xml:space="preserve" text-anchor="middle" x="750.33" y="-111.95" font-family="Times New Roman,serif" font-size="14.00">AssignToDeparture</text>
</g>
<!-- ba1cabea&#45;51e2&#45;4687&#45;923e&#45;90874cb63945 -->
<g id="node9" class="node">
<title>ba1cabea&#45;51e2&#45;4687&#45;923e&#45;90874cb63945</title>
<ellipse fill="#e7a782" stroke="black" cx="892.96" cy="-152" rx="18" ry="18"/>
<text xml:space="preserve" text-anchor="middle" x="892.96" y="-146.95" font-family="Times New Roman,serif" font-size="14.00"> </text>
</g>
<!-- 3bdb803e&#45;fb4f&#45;4980&#45;96ae&#45;82a81106b8ee&#45;&gt;ba1cabea&#45;51e2&#45;4687&#45;923e&#45;90874cb63945 -->
<g id="edge2" class="edge">
<title>3bdb803e&#45;fb4f&#45;4980&#45;96ae&#45;82a81106b8ee&#45;&gt;ba1cabea&#45;51e2&#45;4687&#45;923e&#45;90874cb63945</title>
<path fill="none" stroke="#e7a782" d="M811.38,-131.94C829.64,-136.49 848.84,-141.27 863.92,-145.02"/>
<polygon fill="#e7a782" stroke="#e7a782" points="863.02,-148.4 873.57,-147.42 864.71,-141.61 863.02,-148.4"/>
<text xml:space="preserve" text-anchor="middle" x="821.08" y="-137.7" font-family="Times New Roman,serif" font-size="14.00"> </text>
</g>
<!-- ced757c5&#45;9daa&#45;4d76&#45;9d95&#45;b7e4ce3fb4f0 -->
<g id="node19" class="node">
<title>ced757c5&#45;9daa&#45;4d76&#45;9d95&#45;b7e4ce3fb4f0</title>
<ellipse fill="#5c097d" stroke="black" cx="848.96" cy="-112" rx="18" ry="18"/>
<text xml:space="preserve" text-anchor="middle" x="848.96" y="-106.95" font-family="Times New Roman,serif" font-size="14.00"> </text>
</g>
<!-- 3bdb803e&#45;fb4f&#45;4980&#45;96ae&#45;82a81106b8ee&#45;&gt;ced757c5&#45;9daa&#45;4d76&#45;9d95&#45;b7e4ce3fb4f0 -->
<g id="edge23" class="edge">
<title>3bdb803e&#45;fb4f&#45;4980&#45;96ae&#45;82a81106b8ee&#45;&gt;ced757c5&#45;9daa&#45;4d76&#45;9d95&#45;b7e4ce3fb4f0</title>
<path fill="none" stroke="#5c097d" stroke-width="4" d="M811.7,-113.88C812.78,-113.82 813.84,-113.77 814.9,-113.71"/>
<polygon fill="#5c097d" stroke="#5c097d" stroke-width="4" points="814.81,-117.22 824.61,-113.21 814.44,-110.23 814.81,-117.22"/>
<text xml:space="preserve" text-anchor="middle" x="821.08" y="-116.68" font-family="Times New Roman,serif" font-size="14.00"> </text>
</g>
<!-- c25426a5&#45;5435&#45;4e59&#45;8119&#45;c4e2281310e5 -->
<g id="node4" class="node">
<title>c25426a5&#45;5435&#45;4e59&#45;8119&#45;c4e2281310e5</title>
<polygon fill="none" stroke="black" points="1487.96,-113 1375.96,-113 1375.96,-77 1487.96,-77 1487.96,-113"/>
<text xml:space="preserve" text-anchor="middle" x="1431.96" y="-89.95" font-family="Times New Roman,serif" font-size="14.00">CompleteJourney</text>
</g>
<!-- bcaf5d71&#45;9570&#45;4f3a&#45;bfab&#45;c29954e1e969 -->
<g id="node16" class="node">
<title>bcaf5d71&#45;9570&#45;4f3a&#45;bfab&#45;c29954e1e969</title>
<polygon fill="none" stroke="none" points="1577.71,-113 1507.71,-113 1507.71,-77 1577.71,-77 1577.71,-113"/>
<polyline fill="none" stroke="black" points="1507.71,-77 1577.71,-77"/>
<text xml:space="preserve" text-anchor="middle" x="1542.71" y="-89.95" font-family="Times New Roman,serif" font-size="14.00" fill="#5c097d">Passenger</text>
</g>
<!-- c25426a5&#45;5435&#45;4e59&#45;8119&#45;c4e2281310e5&#45;&gt;bcaf5d71&#45;9570&#45;4f3a&#45;bfab&#45;c29954e1e969 -->
<g id="edge19" class="edge">
<title>c25426a5&#45;5435&#45;4e59&#45;8119&#45;c4e2281310e5&#45;&gt;bcaf5d71&#45;9570&#45;4f3a&#45;bfab&#45;c29954e1e969</title>
<path fill="none" stroke="#5c097d" d="M1488.29,-95C1490.83,-95 1493.37,-95 1495.88,-95"/>
<polygon fill="#5c097d" stroke="#5c097d" points="1495.87,-98.5 1505.87,-95 1495.87,-91.5 1495.87,-98.5"/>
<text xml:space="preserve" text-anchor="middle" x="1497.83" y="-98.2" font-family="Times New Roman,serif" font-size="14.00"> </text>
</g>
<!-- a1cbaea6&#45;6ef0&#45;4335&#45;8769&#45;d71a1c78cac5 -->
<g id="node5" class="node">
<title>a1cbaea6&#45;6ef0&#45;4335&#45;8769&#45;d71a1c78cac5</title>
<polygon fill="none" stroke="black" points="1266.46,-134 1212.46,-134 1212.46,-98 1266.46,-98 1266.46,-134"/>
<text xml:space="preserve" text-anchor="middle" x="1239.46" y="-110.95" font-family="Times New Roman,serif" font-size="14.00">Depart</text>
</g>
<!-- ca4c43b8&#45;10cb&#45;4247&#45;8601&#45;a2a871059893 -->
<g id="node10" class="node">
<title>ca4c43b8&#45;10cb&#45;4247&#45;8601&#45;a2a871059893</title>
<polygon fill="none" stroke="none" points="1356.21,-156 1286.21,-156 1286.21,-120 1356.21,-120 1356.21,-156"/>
<polyline fill="none" stroke="black" points="1286.21,-120 1356.21,-120"/>
<text xml:space="preserve" text-anchor="middle" x="1321.21" y="-132.95" font-family="Times New Roman,serif" font-size="14.00" fill="#e7a782">Departure</text>
</g>
<!-- a1cbaea6&#45;6ef0&#45;4335&#45;8769&#45;d71a1c78cac5&#45;&gt;ca4c43b8&#45;10cb&#45;4247&#45;8601&#45;a2a871059893 -->
<g id="edge3" class="edge">
<title>a1cbaea6&#45;6ef0&#45;4335&#45;8769&#45;d71a1c78cac5&#45;&gt;ca4c43b8&#45;10cb&#45;4247&#45;8601&#45;a2a871059893</title>
<path fill="none" stroke="#e7a782" d="M1266.57,-123.2C1269.27,-123.95 1272.07,-124.72 1274.91,-125.5"/>
<polygon fill="#e7a782" stroke="#e7a782" points="1273.88,-128.85 1284.45,-128.14 1275.74,-122.1 1273.88,-128.85"/>
<text xml:space="preserve" text-anchor="middle" x="1276.33" y="-129.54" font-family="Times New Roman,serif" font-size="14.00"> </text>
</g>
<!-- 2618b5bc&#45;9e8b&#45;4f14&#45;ba1a&#45;787cb03ba0ca -->
<g id="node22" class="node">
<title>2618b5bc&#45;9e8b&#45;4f14&#45;ba1a&#45;787cb03ba0ca</title>
<ellipse fill="#5c097d" stroke="black" cx="1321.21" cy="-95" rx="18" ry="18"/>
<text xml:space="preserve" text-anchor="middle" x="1321.21" y="-89.95" font-family="Times New Roman,serif" font-size="14.00"> </text>
</g>
<!-- a1cbaea6&#45;6ef0&#45;4335&#45;8769&#45;d71a1c78cac5&#45;&gt;2618b5bc&#45;9e8b&#45;4f14&#45;ba1a&#45;787cb03ba0ca -->
<g id="edge18" class="edge">
<title>a1cbaea6&#45;6ef0&#45;4335&#45;8769&#45;d71a1c78cac5&#45;&gt;2618b5bc&#45;9e8b&#45;4f14&#45;ba1a&#45;787cb03ba0ca</title>
<path fill="none" stroke="#5c097d" stroke-width="4" d="M1266.57,-109.12C1273.51,-107.3 1281.09,-105.3 1288.31,-103.4"/>
<polygon fill="#5c097d" stroke="#5c097d" stroke-width="4" points="1288.94,-106.85 1297.71,-100.92 1287.15,-100.09 1288.94,-106.85"/>
<text xml:space="preserve" text-anchor="middle" x="1276.33" y="-109.96" font-family="Times New Roman,serif" font-size="14.00"> </text>
</g>
<!-- 3991af65&#45;2488&#45;4440&#45;b182&#45;f8fc518bc666 -->
<g id="node6" class="node">
<title>3991af65&#45;2488&#45;4440&#45;b182&#45;f8fc518bc666</title>
<polygon fill="none" stroke="black" points="284.39,-57 152.14,-57 152.14,-21 284.39,-21 284.39,-57"/>
<text xml:space="preserve" text-anchor="middle" x="218.26" y="-33.95" font-family="Times New Roman,serif" font-size="14.00">CreateGroupBooking</text>
</g>
<!-- 5d09a9c3&#45;2b38&#45;407b&#45;b89b&#45;08a2366a36e2 -->
<g id="node15" class="node">
<title>5d09a9c3&#45;2b38&#45;407b&#45;b89b&#45;08a2366a36e2</title>
<polygon fill="none" stroke="none" points="411.15,-79 314.15,-79 314.15,-43 411.15,-43 411.15,-79"/>
<polyline fill="none" stroke="black" points="314.15,-43 411.15,-43"/>
<text xml:space="preserve" text-anchor="middle" x="362.65" y="-55.95" font-family="Times New Roman,serif" font-size="14.00" fill="#a6302a">GroupBooking</text>
</g>
<!-- 3991af65&#45;2488&#45;4440&#45;b182&#45;f8fc518bc666&#45;&gt;5d09a9c3&#45;2b38&#45;407b&#45;b89b&#45;08a2366a36e2 -->
<g id="edge12" class="edge">
<title>3991af65&#45;2488&#45;4440&#45;b182&#45;f8fc518bc666&#45;&gt;5d09a9c3&#45;2b38&#45;407b&#45;b89b&#45;08a2366a36e2</title>
<path fill="none" stroke="#a6302a" d="M284.62,-49.1C290.59,-50.02 296.62,-50.95 302.53,-51.87"/>
<polygon fill="#a6302a" stroke="#a6302a" points="301.8,-55.29 312.21,-53.36 302.87,-48.38 301.8,-55.29"/>
<text xml:space="preserve" text-anchor="middle" x="294.26" y="-53.86" font-family="Times New Roman,serif" font-size="14.00"> </text>
</g>
<!-- 1babec2a&#45;bd30&#45;44ae&#45;80ef&#45;8c52335731a1 -->
<g id="node20" class="node">
<title>1babec2a&#45;bd30&#45;44ae&#45;80ef&#45;8c52335731a1</title>
<ellipse fill="#5c097d" stroke="black" cx="362.65" cy="-18" rx="18" ry="18"/>
<text xml:space="preserve" text-anchor="middle" x="362.65" y="-12.95" font-family="Times New Roman,serif" font-size="14.00"> </text>
</g>
<!-- 3991af65&#45;2488&#45;4440&#45;b182&#45;f8fc518bc666&#45;&gt;1babec2a&#45;bd30&#45;44ae&#45;80ef&#45;8c52335731a1 -->
<g id="edge13" class="edge">
<title>3991af65&#45;2488&#45;4440&#45;b182&#45;f8fc518bc666&#45;&gt;1babec2a&#45;bd30&#45;44ae&#45;80ef&#45;8c52335731a1</title>
<path fill="none" stroke="#5c097d" stroke-width="4" d="M284.62,-29.36C299.98,-27.1 315.69,-24.78 328.89,-22.83"/>
<polygon fill="#5c097d" stroke="#5c097d" stroke-width="4" points="329.18,-26.33 338.56,-21.41 328.16,-19.4 329.18,-26.33"/>
<text xml:space="preserve" text-anchor="middle" x="294.26" y="-31.07" font-family="Times New Roman,serif" font-size="14.00"> </text>
</g>
<!-- 1a2feae2&#45;77a9&#45;4b93&#45;b2ad&#45;53638e05adbe -->
<g id="node7" class="node">
<title>1a2feae2&#45;77a9&#45;4b93&#45;b2ad&#45;53638e05adbe</title>
<polygon fill="none" stroke="black" points="1087.21,-121 918.96,-121 918.96,-85 1087.21,-85 1087.21,-121"/>
<text xml:space="preserve" text-anchor="middle" x="1003.08" y="-97.95" font-family="Times New Roman,serif" font-size="14.00">BoardViaAccreditationLane</text>
</g>
<!-- 1a2feae2&#45;77a9&#45;4b93&#45;b2ad&#45;53638e05adbe&#45;&gt;140774f0&#45;2ed7&#45;49db&#45;be72&#45;da7c5654899a -->
<g id="edge7" class="edge">
<title>1a2feae2&#45;77a9&#45;4b93&#45;b2ad&#45;53638e05adbe&#45;&gt;140774f0&#45;2ed7&#45;49db&#45;be72&#45;da7c5654899a</title>
<path fill="none" stroke="#c32873" d="M1087.45,-114.52C1090.1,-114.89 1092.74,-115.25 1095.34,-115.61"/>
<polygon fill="#c32873" stroke="#c32873" points="1094.58,-119.04 1104.97,-116.94 1095.54,-112.1 1094.58,-119.04"/>
<text xml:space="preserve" text-anchor="middle" x="1097.08" y="-119.16" font-family="Times New Roman,serif" font-size="14.00"> </text>
</g>
<!-- 1a2feae2&#45;77a9&#45;4b93&#45;b2ad&#45;53638e05adbe&#45;&gt;c0c71aba&#45;6012&#45;4ff7&#45;aae9&#45;43a3ccfdc394 -->
<g id="edge16" class="edge">
<title>1a2feae2&#45;77a9&#45;4b93&#45;b2ad&#45;53638e05adbe&#45;&gt;c0c71aba&#45;6012&#45;4ff7&#45;aae9&#45;43a3ccfdc394</title>
<path fill="none" stroke="#5c097d" d="M1087.45,-89.75C1099.29,-87.87 1110.73,-86.05 1120.46,-84.51"/>
<polygon fill="#5c097d" stroke="#5c097d" points="1120.95,-87.97 1130.28,-82.95 1119.85,-81.06 1120.95,-87.97"/>
<text xml:space="preserve" text-anchor="middle" x="1097.08" y="-91.3" font-family="Times New Roman,serif" font-size="14.00"> </text>
</g>
<!-- d478486a&#45;bb36&#45;4d8d&#45;a9be&#45;aa2f0343ae0f -->
<g id="node8" class="node">
<title>d478486a&#45;bb36&#45;4d8d&#45;a9be&#45;aa2f0343ae0f</title>
<ellipse fill="#e7a782" stroke="black" cx="621.94" cy="-82" rx="47.77" ry="18"/>
<text xml:space="preserve" text-anchor="middle" x="621.94" y="-76.95" font-family="Times New Roman,serif" font-size="14.00">Departure</text>
</g>
<!-- d478486a&#45;bb36&#45;4d8d&#45;a9be&#45;aa2f0343ae0f&#45;&gt;3bdb803e&#45;fb4f&#45;4980&#45;96ae&#45;82a81106b8ee -->
<g id="edge1" class="edge">
<title>d478486a&#45;bb36&#45;4d8d&#45;a9be&#45;aa2f0343ae0f&#45;&gt;3bdb803e&#45;fb4f&#45;4980&#45;96ae&#45;82a81106b8ee</title>
<path fill="none" stroke="#e7a782" d="M661.21,-92.6C666.75,-94.13 672.59,-95.75 678.53,-97.39"/>
<polygon fill="#e7a782" stroke="#e7a782" points="677.23,-100.67 687.8,-99.96 679.1,-93.92 677.23,-100.67"/>
<text xml:space="preserve" text-anchor="middle" x="679.58" y="-100.6" font-family="Times New Roman,serif" font-size="14.00"> </text>
</g>
<!-- ba1cabea&#45;51e2&#45;4687&#45;923e&#45;90874cb63945&#45;&gt;a1cbaea6&#45;6ef0&#45;4335&#45;8769&#45;d71a1c78cac5 -->
<g id="edge4" class="edge">
<title>ba1cabea&#45;51e2&#45;4687&#45;923e&#45;90874cb63945&#45;&gt;a1cbaea6&#45;6ef0&#45;4335&#45;8769&#45;d71a1c78cac5</title>
<path fill="none" stroke="#e7a782" d="M910.95,-154.54C957.32,-160.84 1089.48,-174.58 1192.71,-144 1196.48,-142.88 1200.26,-141.37 1203.93,-139.62"/>
<polygon fill="#e7a782" stroke="#e7a782" points="1205.47,-142.77 1212.6,-134.94 1202.14,-136.61 1205.47,-142.77"/>
<text xml:space="preserve" text-anchor="middle" x="1097.08" y="-163.93" font-family="Times New Roman,serif" font-size="14.00"> </text>
</g>
<!-- b7853dc1&#45;724f&#45;4275&#45;a9a1&#45;034c30b03310 -->
<g id="node11" class="node">
<title>b7853dc1&#45;724f&#45;4275&#45;a9a1&#45;034c30b03310</title>
<ellipse fill="#c32873" stroke="black" cx="362.65" cy="-104" rx="58.52" ry="18"/>
<text xml:space="preserve" text-anchor="middle" x="362.65" y="-98.95" font-family="Times New Roman,serif" font-size="14.00">TravelTicket</text>
</g>
<!-- b7853dc1&#45;724f&#45;4275&#45;a9a1&#45;034c30b03310&#45;&gt;09ff1fc1&#45;d92b&#45;40f5&#45;9022&#45;a2736c771ae4 -->
<g id="edge8" class="edge">
<title>b7853dc1&#45;724f&#45;4275&#45;a9a1&#45;034c30b03310&#45;&gt;09ff1fc1&#45;d92b&#45;40f5&#45;9022&#45;a2736c771ae4</title>
<path fill="none" stroke="#c32873" d="M403.92,-90.98C412.19,-88.31 421.09,-85.43 430,-82.55"/>
<polygon fill="#c32873" stroke="#c32873" points="430.95,-85.92 439.39,-79.52 428.8,-79.26 430.95,-85.92"/>
<text xml:space="preserve" text-anchor="middle" x="431.05" y="-85.7" font-family="Times New Roman,serif" font-size="14.00"> </text>
</g>
<!-- 61d9a8fc&#45;22a0&#45;46da&#45;bc86&#45;d311aafea46b&#45;&gt;60866b13&#45;e5a1&#45;4d97&#45;a933&#45;c5cc71ab4bea -->
<g id="edge6" class="edge">
<title>61d9a8fc&#45;22a0&#45;46da&#45;bc86&#45;d311aafea46b&#45;&gt;60866b13&#45;e5a1&#45;4d97&#45;a933&#45;c5cc71ab4bea</title>
<path fill="none" stroke="#c32873" d="M861.07,-39.16C865,-35.28 869.75,-31.56 874.96,-29.5 891.12,-23.1 909.3,-21.87 926.74,-23.27"/>
<polygon fill="#c32873" stroke="#c32873" points="926.24,-26.73 936.57,-24.36 927.01,-19.77 926.24,-26.73"/>
<text xml:space="preserve" text-anchor="middle" x="892.96" y="-32.7" font-family="Times New Roman,serif" font-size="14.00"> </text>
</g>
<!-- 61d9a8fc&#45;22a0&#45;46da&#45;bc86&#45;d311aafea46b&#45;&gt;1a2feae2&#45;77a9&#45;4b93&#45;b2ad&#45;53638e05adbe -->
<g id="edge9" class="edge">
<title>61d9a8fc&#45;22a0&#45;46da&#45;bc86&#45;d311aafea46b&#45;&gt;1a2feae2&#45;77a9&#45;4b93&#45;b2ad&#45;53638e05adbe</title>
<path fill="none" stroke="#c32873" d="M867.42,-51.91C879.98,-51.76 897.07,-52.85 910.96,-58.5 915.2,-60.23 915.07,-62.58 918.96,-65 927.38,-70.23 936.65,-75.17 945.84,-79.65"/>
<polygon fill="#c32873" stroke="#c32873" points="944.23,-82.76 954.77,-83.86 947.22,-76.43 944.23,-82.76"/>
<text xml:space="preserve" text-anchor="middle" x="892.96" y="-61.7" font-family="Times New Roman,serif" font-size="14.00"> </text>
</g>
<!-- ae15d4e9&#45;21cc&#45;4372&#45;acb4&#45;a01e2ebb98f5 -->
<g id="node14" class="node">
<title>ae15d4e9&#45;21cc&#45;4372&#45;acb4&#45;a01e2ebb98f5</title>
<ellipse fill="#a6302a" stroke="black" cx="66.19" cy="-61" rx="66.19" ry="18"/>
<text xml:space="preserve" text-anchor="middle" x="66.19" y="-55.95" font-family="Times New Roman,serif" font-size="14.00">GroupBooking</text>
</g>
<!-- ae15d4e9&#45;21cc&#45;4372&#45;acb4&#45;a01e2ebb98f5&#45;&gt;3991af65&#45;2488&#45;4440&#45;b182&#45;f8fc518bc666 -->
<g id="edge11" class="edge">
<title>ae15d4e9&#45;21cc&#45;4372&#45;acb4&#45;a01e2ebb98f5&#45;&gt;3991af65&#45;2488&#45;4440&#45;b182&#45;f8fc518bc666</title>
<path fill="none" stroke="#a6302a" d="M125.21,-52.49C130.22,-51.76 135.33,-51.01 140.46,-50.26"/>
<polygon fill="#a6302a" stroke="#a6302a" points="140.77,-53.75 150.16,-48.84 139.76,-46.82 140.77,-53.75"/>
<text xml:space="preserve" text-anchor="middle" x="142.26" y="-53.2" font-family="Times New Roman,serif" font-size="14.00"> </text>
</g>
<!-- 5e0bee53&#45;2e4c&#45;4657&#45;b935&#45;6c664d6b101f -->
<g id="node17" class="node">
<title>5e0bee53&#45;2e4c&#45;4657&#45;b935&#45;6c664d6b101f</title>
<ellipse fill="#5c097d" stroke="black" cx="66.19" cy="-18" rx="47.77" ry="18"/>
<text xml:space="preserve" text-anchor="middle" x="66.19" y="-12.95" font-family="Times New Roman,serif" font-size="14.00">Passenger</text>
</g>
<!-- 5e0bee53&#45;2e4c&#45;4657&#45;b935&#45;6c664d6b101f&#45;&gt;3991af65&#45;2488&#45;4440&#45;b182&#45;f8fc518bc666 -->
<g id="edge20" class="edge">
<title>5e0bee53&#45;2e4c&#45;4657&#45;b935&#45;6c664d6b101f&#45;&gt;3991af65&#45;2488&#45;4440&#45;b182&#45;f8fc518bc666</title>
<path fill="none" stroke="#5c097d" stroke-width="4" d="M111.41,-24.19C119.2,-25.28 127.53,-26.44 135.96,-27.62"/>
<polygon fill="#5c097d" stroke="#5c097d" stroke-width="4" points="135.29,-31.06 145.68,-28.98 136.26,-24.13 135.29,-31.06"/>
<text xml:space="preserve" text-anchor="middle" x="142.26" y="-31.7" font-family="Times New Roman,serif" font-size="14.00"> </text>
</g>
<!-- a7ee77a9&#45;3bb7&#45;4c36&#45;87e2&#45;ea8380cd852a&#45;&gt;3bdb803e&#45;fb4f&#45;4980&#45;96ae&#45;82a81106b8ee -->
<g id="edge14" class="edge">
<title>a7ee77a9&#45;3bb7&#45;4c36&#45;87e2&#45;ea8380cd852a&#45;&gt;3bdb803e&#45;fb4f&#45;4980&#45;96ae&#45;82a81106b8ee</title>
<path fill="none" stroke="#5c097d" stroke-width="4" d="M640.25,-123.9C649.23,-123.34 660.9,-122.6 673.26,-121.82"/>
<polygon fill="#5c097d" stroke="#5c097d" stroke-width="4" points="673.32,-125.32 683.08,-121.19 672.88,-118.33 673.32,-125.32"/>
<text xml:space="preserve" text-anchor="middle" x="679.58" y="-124.68" font-family="Times New Roman,serif" font-size="14.00"> </text>
</g>
<!-- ced757c5&#45;9daa&#45;4d76&#45;9d95&#45;b7e4ce3fb4f0&#45;&gt;60866b13&#45;e5a1&#45;4d97&#45;a933&#45;c5cc71ab4bea -->
<g id="edge24" class="edge">
<title>ced757c5&#45;9daa&#45;4d76&#45;9d95&#45;b7e4ce3fb4f0&#45;&gt;60866b13&#45;e5a1&#45;4d97&#45;a933&#45;c5cc71ab4bea</title>
<path fill="none" stroke="#5c097d" d="M862.87,-100.09C866.59,-97.03 870.78,-93.92 874.96,-91.5 892.46,-81.35 912.49,-72.56 931.38,-65.36"/>
<polygon fill="#5c097d" stroke="#5c097d" points="932.46,-68.69 940.63,-61.94 930.03,-62.12 932.46,-68.69"/>
<text xml:space="preserve" text-anchor="middle" x="892.96" y="-94.7" font-family="Times New Roman,serif" font-size="14.00"> </text>
</g>
<!-- ced757c5&#45;9daa&#45;4d76&#45;9d95&#45;b7e4ce3fb4f0&#45;&gt;1a2feae2&#45;77a9&#45;4b93&#45;b2ad&#45;53638e05adbe -->
<g id="edge15" class="edge">
<title>ced757c5&#45;9daa&#45;4d76&#45;9d95&#45;b7e4ce3fb4f0&#45;&gt;1a2feae2&#45;77a9&#45;4b93&#45;b2ad&#45;53638e05adbe</title>
<path fill="none" stroke="#5c097d" d="M867.41,-110.97C877.9,-110.35 892.16,-109.5 907.49,-108.6"/>
<polygon fill="#5c097d" stroke="#5c097d" points="907.51,-112.1 917.29,-108.02 907.1,-105.11 907.51,-112.1"/>
<text xml:space="preserve" text-anchor="middle" x="892.96" y="-113.69" font-family="Times New Roman,serif" font-size="14.00"> </text>
</g>
<!-- 1babec2a&#45;bd30&#45;44ae&#45;80ef&#45;8c52335731a1&#45;&gt;09ff1fc1&#45;d92b&#45;40f5&#45;9022&#45;a2736c771ae4 -->
<g id="edge22" class="edge">
<title>1babec2a&#45;bd30&#45;44ae&#45;80ef&#45;8c52335731a1&#45;&gt;09ff1fc1&#45;d92b&#45;40f5&#45;9022&#45;a2736c771ae4</title>
<path fill="none" stroke="#5c097d" d="M380.23,-23.36C392.92,-27.46 411.33,-33.41 429.78,-39.38"/>
<polygon fill="#5c097d" stroke="#5c097d" points="428.57,-42.66 439.16,-42.41 430.72,-36 428.57,-42.66"/>
<text xml:space="preserve" text-anchor="middle" x="431.05" y="-42.7" font-family="Times New Roman,serif" font-size="14.00"> </text>
</g>
<!-- c0c71aba&#45;6012&#45;4ff7&#45;aae9&#45;43a3ccfdc394&#45;&gt;a1cbaea6&#45;6ef0&#45;4335&#45;8769&#45;d71a1c78cac5 -->
<g id="edge25" class="edge">
<title>c0c71aba&#45;6012&#45;4ff7&#45;aae9&#45;43a3ccfdc394&#45;&gt;a1cbaea6&#45;6ef0&#45;4335&#45;8769&#45;d71a1c78cac5</title>
<path fill="none" stroke="#5c097d" stroke-width="4" d="M1166.91,-86.6C1175.5,-90.13 1186.52,-94.66 1197.32,-99.1"/>
<polygon fill="#5c097d" stroke="#5c097d" stroke-width="4" points="1195.99,-102.34 1206.57,-102.9 1198.65,-95.86 1195.99,-102.34"/>
<text xml:space="preserve" text-anchor="middle" x="1202.58" y="-104.42" font-family="Times New Roman,serif" font-size="14.00"> </text>
</g>
<!-- 2618b5bc&#45;9e8b&#45;4f14&#45;ba1a&#45;787cb03ba0ca&#45;&gt;c25426a5&#45;5435&#45;4e59&#45;8119&#45;c4e2281310e5 -->
<g id="edge26" class="edge">
<title>2618b5bc&#45;9e8b&#45;4f14&#45;ba1a&#45;787cb03ba0ca&#45;&gt;c25426a5&#45;5435&#45;4e59&#45;8119&#45;c4e2281310e5</title>
<path fill="none" stroke="#5c097d" d="M1339.68,-95C1346.77,-95 1355.44,-95 1364.58,-95"/>
<polygon fill="#5c097d" stroke="#5c097d" points="1364.39,-98.5 1374.39,-95 1364.39,-91.5 1364.39,-98.5"/>
<text xml:space="preserve" text-anchor="middle" x="1366.08" y="-98.2" font-family="Times New Roman,serif" font-size="14.00"> </text>
</g>
</g>
</svg>
